<svg id="reset-password" xmlns="http://www.w3.org/2000/svg" width="83.676" height="83.676" viewBox="0 0 83.676 83.676">
  <path id="Path_34330" data-name="Path 34330" d="M89.992,232.812l-4.884.436c.1,1.1.151,2.224.151,3.354a37.092,37.092,0,0,1-36.935,36.935,36.591,36.591,0,0,1-27.478-12.578l6.979-4.03-18.8-12.489L7.753,268.518l8.783-5.072a41.447,41.447,0,0,0,31.787,14.993A42,42,0,0,0,90.162,236.6q0-1.918-.17-3.79Z" transform="translate(-6.486 -194.764)" fill="#fff"/>
  <path id="Path_34331" data-name="Path 34331" d="M4.9,41.838A37.092,37.092,0,0,1,41.838,4.9,36.591,36.591,0,0,1,69.315,17.48l-7.167,4.138L82.174,33.6V10.055l-8.55,4.937A41.447,41.447,0,0,0,41.838,0,42,42,0,0,0,0,41.838q0,1.918.17,3.79l4.884-.436c-.1-1.1-.151-2.224-.151-3.354Z" fill="#fff"/>
  <path id="Path_34332" data-name="Path 34332" d="M168.16,125.752l7.354-7.354V93.668a17.16,17.16,0,1,0-14.709,0V118.4Zm-2.451-54.947h4.9v4.9h-4.9Z" transform="translate(-126.322 -51.031)" fill="#fff"/>
</svg>
